<svg xmlns="http://www.w3.org/2000/svg" viewBox="0 0 30 30"><defs><style>.cls-1{fill:#c91c05;}.cls-2{fill:#eb2701;}</style></defs><g id="Layer_2" data-name="Layer 2"><path class="cls-1" d="M21.84244,14.24515a4.29274,4.29274,0,0,1-.13,1.07,3.57043,3.57043,0,0,1-4.31,2.59,3.40761,3.40761,0,0,1-2.72-2.58,4.64234,4.64234,0,0,1,.47-3.35l2.22-4.07.41-.74c.12-.17.24005-.35.41-.4a1.15492,1.15492,0,0,1,.36.4l2.69,4.81A4.59682,4.59682,0,0,1,21.84244,14.24515Z"/><path class="cls-2" d="M20.25247,14.24515a4.81837,4.81837,0,0,1-.13,1.07,3.43141,3.43141,0,0,1-2.72,2.59,3.40761,3.40761,0,0,1-2.72-2.58,4.64234,4.64234,0,0,1,.47-3.35l2.22-4.07,2.28,4.07A4.59617,4.59617,0,0,1,20.25247,14.24515Z"/><path class="cls-1" d="M17.17754,18.60449a5.31547,5.31547,0,0,1-.161,1.32487A4.42085,4.42085,0,0,1,11.68,23.13621a4.21924,4.21924,0,0,1-3.36782-3.19446,5.7481,5.7481,0,0,1,.58191-4.148l2.74881-5.03941.50762-.91625c.14858-.21047.29723-.43333.5077-.49522a1.43,1.43,0,0,1,.44572.49522l3.33072,5.95566A5.69162,5.69162,0,0,1,17.17754,18.60449Z"/><path class="cls-2" d="M15.20887,18.60449a5.96538,5.96538,0,0,1-.161,1.32487A4.2487,4.2487,0,0,1,11.68,23.13621a4.21924,4.21924,0,0,1-3.36782-3.19446,5.7481,5.7481,0,0,1,.58191-4.148l2.74881-5.03941,2.823,5.03941A5.691,5.691,0,0,1,15.20887,18.60449Z"/></g></svg>