<svg xmlns="http://www.w3.org/2000/svg" width="35.184" height="42.094" viewBox="0 0 35.184 42.094">
  <g id="Diabetes" transform="translate(-7.154 -5.671)">
    <g id="Path_42" data-name="Path 42" transform="translate(9.117 0)" fill="#d42553">
      <path d="M 23.52170753479004 34.52333831787109 C 22.79490089416504 34.52333831787109 22.06527519226074 34.435546875 21.35288238525391 34.26240158081055 C 17.90892219543457 33.64164733886719 15.17083168029785 31.04054832458496 14.3750581741333 27.63168716430664 C 13.68947887420654 24.74964332580566 14.11154079437256 21.73833656311035 15.56400299072266 19.15405082702637 L 20.94464874267578 9.28953742980957 L 21.94024848937988 7.492587566375732 L 21.95343780517578 7.468787670135498 L 21.9691276550293 7.446567535400391 L 22.0098876953125 7.388707637786865 C 22.31955718994141 6.948807716369629 22.6705379486084 6.450217723846436 23.23048782348633 6.285477638244629 L 23.45894813537598 6.218267440795898 L 23.65509796142578 6.353287696838379 C 24.08033180236816 6.64598274230957 24.43550491333008 7.04028844833374 24.68235778808594 7.493664741516113 L 31.20242881774902 19.1522274017334 C 32.19478988647461 20.89890670776367 32.72035980224609 22.88732719421387 32.72066879272461 24.89958763122559 C 32.7252197265625 25.81306838989258 32.61408615112305 26.72778701782227 32.39034652709961 27.61591720581055 C 31.35850715637207 31.68323707580566 27.71167755126953 34.52333831787109 23.52170753479004 34.52333831787109 Z" stroke="none"/>
      <path d="M 23.52171325683594 34.02333831787109 C 27.39116668701172 34.02333831787109 30.9118709564209 31.41046714782715 31.90549850463867 27.49377822875977 C 32.1191291809082 26.6457576751709 32.22501754760742 25.77417755126953 32.22066879272461 24.89967727661133 L 32.22066879272461 24.89966773986816 C 32.22036743164062 22.97021675109863 31.71913719177246 21.07388687133789 30.76603889465332 19.39627838134766 L 24.24439811706543 7.734907627105713 C 24.03388786315918 7.347437381744385 23.73483848571777 7.015167713165283 23.37160873413086 6.765147686004639 C 22.9595775604248 6.886367797851562 22.66853713989258 7.322757720947266 22.37760734558105 7.734907627105713 L 21.38359832763672 9.52896785736084 L 16.00142860412598 19.39627838134766 C 14.61365795135498 21.86386680603027 14.20679759979248 24.76381683349609 14.86196804046631 27.51802825927734 C 15.61258792877197 30.73347663879395 18.20573806762695 33.19315719604492 21.45632743835449 33.77297592163086 C 22.14774894714355 33.94228363037109 22.84004402160645 34.02333831787109 23.52171325683594 34.02333831787109 M 23.52170753479004 35.02333831787109 C 22.76008796691895 35.02333831787109 21.99578475952148 34.93199157714844 21.24938774108887 34.75179290771484 C 17.61578559875488 34.09087753295898 14.72820091247559 31.34391403198242 13.88814830780029 27.74535751342773 C 13.17417526245117 24.74396133422852 13.61356449127197 21.60586929321289 15.12624740600586 18.91244125366211 L 20.50888824462891 9.044327735900879 L 21.52926826477051 7.202677726745605 L 21.60102844238281 7.100897789001465 C 21.94009780883789 6.619227409362793 22.36208724975586 6.019767761230469 23.08936882019043 5.805807590484619 L 23.54627799987793 5.671377658843994 L 23.9385986328125 5.941427707672119 C 24.42739105224609 6.277871131896973 24.83576774597168 6.730859756469727 25.11995124816895 7.251754760742188 L 31.63666343688965 18.9043140411377 C 32.67261505126953 20.72857856750488 33.2203369140625 22.80161666870117 33.22066879272461 24.89950752258301 C 33.22541809082031 25.85256767272949 33.10918807983398 26.80921745300293 32.87519836425781 27.73805809020996 C 31.78683853149414 32.0281867980957 27.94070816040039 35.02333831787109 23.52170753479004 35.02333831787109 Z" stroke="none" fill="#302d3d"/>
    </g>
    <path id="Path_43" data-name="Path 43" d="M28.366,23.276a11.682,11.682,0,0,1-.315,2.594,8.319,8.319,0,0,1-6.594,6.279,8.261,8.261,0,0,1-6.594-6.255A11.255,11.255,0,0,1,16,17.772l5.382-9.867,5.528,9.867a11.143,11.143,0,0,1,1.455,5.5Z" transform="translate(9.117 1.624)" fill="#ff7a9a"/>
    <g id="Path_44" data-name="Path 44" transform="translate(0 3.672)" fill="#d42553">
      <path d="M 19.2567195892334 43.59343719482422 C 18.36506652832031 43.59343719482422 17.46999168395996 43.48559951782227 16.59600257873535 43.27288436889648 C 12.37683200836182 42.51395034790039 9.022418975830078 39.328125 8.047580718994141 35.1524772644043 C 7.205417633056641 31.61242866516113 7.723864078521729 27.91399955749512 9.507856369018555 24.74015808105469 L 16.17053985595703 12.52540683746338 L 17.40281105041504 10.30116748809814 L 17.41600036621094 10.27735710144043 L 17.43169975280762 10.25511741638184 L 17.48224067687988 10.18338680267334 C 17.8544807434082 9.654657363891602 18.27638053894043 9.055377006530762 18.92998123168945 8.863177299499512 L 19.15841102600098 8.79600715637207 L 19.35453987121582 8.931007385253906 C 19.86576652526855 9.282906532287598 20.29277610778809 9.75698184967041 20.58951759338379 10.30208683013916 L 28.66303062438965 24.73833656311035 C 29.88199043273926 26.88390731811523 30.5273494720459 29.3256664276123 30.52768135070801 31.79668617248535 C 30.53324127197266 32.91829681396484 30.39682006835938 34.04089736938477 30.12220001220703 35.13091659545898 C 29.49624061584473 37.59819793701172 28.10091018676758 39.71946716308594 26.08683967590332 41.26621627807617 C 24.13269996643066 42.76694869995117 21.70705032348633 43.59343719482422 19.2567195892334 43.59343719482422 Z" stroke="none"/>
      <path d="M 19.25672340393066 43.09343719482422 C 24.04776573181152 43.09343719482422 28.40701484680176 39.8582763671875 29.63735008239746 35.00876617431641 C 29.90188980102539 33.95874786376953 30.03304100036621 32.87957763671875 30.02768135070801 31.79675674438477 C 30.0273609161377 29.4076976776123 29.40677070617676 27.05963706970215 28.22664070129395 24.98238754272461 L 20.15163993835449 10.54347705841064 C 19.8909912109375 10.06377696990967 19.5207405090332 9.652406692504883 19.07104110717773 9.342866897583008 C 18.56077003479004 9.492917060852051 18.20038986206055 10.03321743011475 17.84016990661621 10.54347705841064 L 16.6094913482666 12.76483726501465 L 9.945280075073242 24.98238754272461 C 8.226940155029297 28.03778648376465 7.72320032119751 31.62853622436523 8.534490585327148 35.0388069152832 C 9.463940620422363 39.02004623413086 12.67468070983887 42.06551742553711 16.69944000244141 42.7834587097168 C 17.5555362701416 42.99308395385742 18.4127025604248 43.09343719482422 19.25672340393066 43.09343719482422 M 19.2567195892334 44.09343719482422 C 18.33030319213867 44.09343719482422 17.40051078796387 43.98204040527344 16.49255752563477 43.76229476928711 C 12.08399486541748 42.96302795410156 8.579758644104004 39.63131332397461 7.560680389404297 35.26614761352539 C 6.690072059631348 31.60658264160156 7.225831031799316 27.78136253356934 9.070255279541016 24.4982738494873 L 15.73476028442383 12.28021717071533 L 16.99183082580566 10.01123714447021 L 17.07340049743652 9.895557403564453 C 17.47195053100586 9.329446792602539 17.96796035766602 8.624897003173828 18.78892135620117 8.383486747741699 L 19.24578094482422 8.249147415161133 L 19.63803100585938 8.519146919250488 C 20.212890625 8.914835929870605 20.69317626953125 9.44774055480957 21.02727127075195 10.06046485900879 L 29.0976390838623 24.49109077453613 C 30.3598804473877 26.71404075622559 31.02733993530273 29.24028015136719 31.02768135070801 31.79662704467773 C 31.03343963623047 32.95780563354492 30.89192008972168 34.12233734130859 30.6070499420166 35.25306701660156 C 29.95300102233887 37.8310661315918 28.49538993835449 40.04695892333984 26.39138984680176 41.66277694702148 C 24.35037994384766 43.23020553588867 21.81657981872559 44.09343719482422 19.2567195892334 44.09343719482422 Z" stroke="none" fill="#302d3d"/>
    </g>
    <path id="Path_45" data-name="Path 45" d="M25.255,29.786A14.462,14.462,0,0,1,24.865,33,10.3,10.3,0,0,1,16.7,40.773a10.229,10.229,0,0,1-8.165-7.745A13.936,13.936,0,0,1,9.945,22.972l6.664-12.218,6.844,12.218a13.8,13.8,0,0,1,1.8,6.814Z" transform="translate(0 5.682)" fill="#f7527b"/>
  </g>
</svg>
