<svg xmlns="http://www.w3.org/2000/svg" viewBox="0 0 96 96"><defs><style>.cls-1{fill:#f7527b;}.cls-2{fill:#ffa7bc;}.cls-3{fill:#ff7a9a;}.cls-4{fill:#d42553;}.cls-5{fill:#302d3d;}</style></defs><title>Heart</title><g id="Heart"><rect class="cls-1" x="24.48" y="1.53" width="7.81" height="18.74" transform="translate(-1.43 4.96) rotate(-9.73)"/><path class="cls-2" d="M16.84,8.63l10.47,5.18a3.73,3.73,0,0,0,3.62-.15C40.75,7.5,54.43,11.38,61,22.75c6.35,11,3.4,24.49-6.55,30.24S31.29,54.5,25,43.55a23.72,23.72,0,0,1-2.1-19.64,3.08,3.08,0,0,0-1.43-3.77l-8-4.22Z"/><path class="cls-1" d="M80.55,66.74c-10.52,39.55-46,35-57.8,2.35C16.56,52,19,33.61,27.89,25.09l22.9-22.4L56.66,6.1,45,18.2a2.13,2.13,0,0,0,.78,3.48,24.55,24.55,0,0,1,5,2.75c5.09-3.78,11.18-5.43,17.08-3C80.19,26.42,85.86,46.72,80.55,66.74Z"/><path class="cls-3" d="M44.63,27.79c-5.37-2.56-9.84-1.53-13.26,2.32a2.42,2.42,0,0,0,1.83,4h9.95A3.34,3.34,0,0,0,44.63,27.79Z"/><path class="cls-3" d="M65.62,27A2.68,2.68,0,0,0,62.34,28c-2.44,3.8-5.32,7.57-8.07,11.15a13.78,13.78,0,0,0-2.89,8.39v13a11.39,11.39,0,0,0,17,10.13C82,63,77.23,31.7,65.62,27Z"/><path class="cls-4" d="M80.55,66.75c-10.5,39.56-46,35-57.8,2.34a56,56,0,0,1-3.39-21.55C20.47,70.81,35.93,83.34,51,72.1,66.67,83.07,81.49,71,82.49,49A58.65,58.65,0,0,1,80.55,66.75Z"/><path class="cls-5" d="M81.91,64.9A59.51,59.51,0,0,0,83.4,48.82c-.51-11.06-5.07-24.36-15.24-28.51a16,16,0,0,0-8.29-1,25.21,25.21,0,0,0-8.09-6.93l5.51-5.7a1,1,0,0,0-.21-1.56L51.21,1.68A1,1,0,0,0,50,1.83c-.25.26-3.68,3.61-8,7.8a20.47,20.47,0,0,0-8.68,1.49L31.55.68A1,1,0,0,0,30.4-.13L22.71,1.19a1,1,0,0,0-.82,1.15l1.42,8.27-6.11-3a1,1,0,0,0-1.35.48l-3.39,7.29a1,1,0,0,0,.44,1.3l8,4.24a2.07,2.07,0,0,1,1,2.54,23.73,23.73,0,0,0-1.08,10.93c-4,10.86-3,24.13.95,34.93C34.57,104.73,72.46,106.15,81.91,64.9ZM80,64.25c-9.23,40.86-46.41,37.56-57.38,1.39C21,60.31,23.86,72,33.51,75.92c5.54,2.28,11.72,1.3,17.47-2.75,6.69,4.47,13.67,5.09,19.72,1.75C78.1,70.77,80.42,62.41,80,64.25ZM57.67,19.71a22.37,22.37,0,0,0-7,3.35c-4-2.66-5.14-2.15-5.39-3.29a1.12,1.12,0,0,1,.29-1l4.74-4.9A22.93,22.93,0,0,1,57.67,19.71ZM50.86,3.79,55,6.17,44.15,17.36a3.13,3.13,0,0,0,1.14,5.1C51.76,25,56.92,30.68,60.48,36.73a1,1,0,0,0,.86.49,1,1,0,0,0,.86-1.51A40.13,40.13,0,0,0,52.43,24.3c4.63-3.07,9.92-4.19,15-2.13,8.25,3.37,13.38,14,14,26.76-.55,11.4-4.91,20.45-11.67,24.24C60.91,78,51.3,72.74,44.89,64.84a1,1,0,1,0-1.55,1.26,35.66,35.66,0,0,0,5.92,5.82c-5,3.31-10.28,4.08-15,2.14-8-3.25-13.33-13.44-14-26.6a41.26,41.26,0,0,1,2.44-12.64C25.28,28.06,28,26.12,34,20.27a1,1,0,0,0,.55-.38C35.19,19,41.85,12.63,50.86,3.79ZM25.52,11.7,24,3l5.72-1,1.71,10c-.26.14-.8.45-1.14.66a2.74,2.74,0,0,1-2.65.11Zm-3.7,7.42-7.15-3.79,2.56-5.5c10,4.93,10.18,5.23,11.68,5.23a4.93,4.93,0,0,0,2.47-.7A18.27,18.27,0,0,1,40,11.64l-7,6.81c-4.87,5-7.73,6.81-10.43,11.86a20.9,20.9,0,0,1,1.17-6.22A4.06,4.06,0,0,0,21.82,19.12Z"/><path class="cls-5" d="M49.24,49.35c4.1,1.2,4.63,4.56.8,6.16a1,1,0,0,0,.38,1.93,1.09,1.09,0,0,0,.39-.08c5.54-2.32,4.95-8.18-1-9.93a1,1,0,0,0-.56,1.92Z"/><path class="cls-5" d="M64.07,44.12a1,1,0,1,0-1.92-.56c-1.2,4.08-4.55,4.64-6.17.8a1,1,0,0,0-1.31-.54,1,1,0,0,0-.53,1.31C56.46,50.65,62.32,50.1,64.07,44.12Z"/><path class="cls-5" d="M59.38,60.82a1,1,0,0,0,.88.52,1,1,0,0,0,.87-1.48c-2.05-3.74-.05-6.49,3.8-4.92a1,1,0,1,0,.75-1.85C60.13,50.82,56.4,55.37,59.38,60.82Z"/><path class="cls-5" d="M32.68,46.41A6.36,6.36,0,0,1,28.85,46a19.1,19.1,0,0,1,.42-5,1,1,0,1,0-1.93-.49,20.5,20.5,0,0,0-.48,5.85,1,1,0,0,0,0,.59A12.26,12.26,0,0,0,29.07,53a1,1,0,0,0,.8.4,1,1,0,0,0,.81-1.59,9.22,9.22,0,0,1-1.55-3.62,8.16,8.16,0,0,0,3.95.17,1,1,0,0,0-.4-2Z"/><path class="cls-5" d="M56.58,85.62A20.5,20.5,0,0,1,49,83.82a1,1,0,0,0-1.35.45,1,1,0,0,0,.45,1.34,22.25,22.25,0,0,0,8.41,2,1,1,0,0,0,.07-2Z"/></g></svg>