<svg xmlns="http://www.w3.org/2000/svg" width="24.966" height="40" viewBox="0 0 24.966 40">
  <g id="Hypertension" transform="translate(-26.664 -5.954)">
    <path id="Path_46" data-name="Path 46" d="M33.826,17.375v7.178c.007.143-.131.281-.384.383a2.669,2.669,0,0,1-.958.16H17.664a2.74,2.74,0,0,1-.97-.159c-.257-.1-.4-.24-.4-.384V17.375c0-.144.144-.282.4-.384a2.74,2.74,0,0,1,.97-.159h14.82a2.669,2.669,0,0,1,.958.16c.252.1.391.24.383.383Z" transform="translate(12.367 20.857)" fill="#6478dc"/>
    <path id="Path_47" data-name="Path 47" d="M36.872,21.858a4.692,4.692,0,0,0-3.344,1.512V11.329a2.267,2.267,0,0,0-4.534,0V8.577a2.623,2.623,0,1,0-5.246,0v1.911a2.267,2.267,0,0,0-4.534,0v4.132a1.7,1.7,0,1,0-3.405,0V26.938a15.142,15.142,0,0,0,1.98,9.132H33.528c3.044-.907,2.914-8.13,2.914-8.13l1.484-4.371a1.3,1.3,0,0,0-1.054-1.711Z" transform="translate(11.294 0)" fill="#f0afa4"/>
    <path id="Path_48" data-name="Path 48" d="M24.555,9.267V21.052a7.15,7.15,0,0,0-1.9,1.254V10.288a2.272,2.272,0,0,0-2.246-2.276,2.207,2.207,0,0,1,1.867-.992,2.254,2.254,0,0,1,2.276,2.246Z" transform="translate(20.264 2.045)" fill="#e29086"/>
    <path id="Path_49" data-name="Path 49" d="M26.6,13.121,25.114,17.5s.117,7.206-2.917,8.11h-.554a14.681,14.681,0,0,0,1.575-7.118l1.488-4.376a1.278,1.278,0,0,0-1.05-1.692,2.157,2.157,0,0,0-.963.058A4.229,4.229,0,0,1,25.551,11.4a1.3,1.3,0,0,1,1.05,1.721Z" transform="translate(22.623 10.443)" fill="#e29086"/>
    <path id="Path_50" data-name="Path 50" d="M36.869,17.358v3.211a1.3,1.3,0,0,1-1.228,1.356h-18.8a1.3,1.3,0,0,1-1.228-1.356V17.358A1.3,1.3,0,0,1,16.838,16h18.8a1.3,1.3,0,0,1,1.228,1.356Z" transform="translate(11.055 19.266)" fill="#d42553"/>
    <path id="Path_51" data-name="Path 51" d="M17.664,16.832H30.121c.757,0,1.371.243,1.371.543v7.178c0,.3-.614.543-1.371.543H17.664c-.757,0-1.371-.243-1.371-.543V17.375c0-.3.614-.543,1.371-.543Z" transform="translate(12.367 20.857)" fill="#8296ff"/>
    <path id="Path_52" data-name="Path 52" d="M34.252,17.358v3.211a1.3,1.3,0,0,1-1.228,1.356H16.838a1.3,1.3,0,0,1-1.228-1.356V17.358A1.3,1.3,0,0,1,16.838,16H33.025A1.3,1.3,0,0,1,34.252,17.358Z" transform="translate(11.055 19.266)" fill="#f7527b"/>
    <path id="Path_53" data-name="Path 53" d="M20.684,17.861a.433.433,0,0,1-.433-.433c0-3.613,4.26-5.535,4.442-5.616a.433.433,0,0,1,.35.792c-.039.017-3.926,1.777-3.926,4.823A.433.433,0,0,1,20.684,17.861Z" transform="translate(19.955 11.162)" fill="#e29086"/>
    <g id="Group_31" data-name="Group 31" transform="translate(-2.62 -4.968)">
      <path id="Path_64" data-name="Path 64" d="M33.819,14.455a18.225,18.225,0,0,1-4.642,6.067,3.156,3.156,0,0,1-3.866,0c-.085-.071-.169-.127-.254-.212a12.774,12.774,0,0,1-1.27-1.2,21.31,21.31,0,0,1-3.118-4.628,4.483,4.483,0,0,1,.423-4.868c2.385-2.878,6.152.508,6.152.508A7.116,7.116,0,0,1,30.5,8.5a3.086,3.086,0,0,1,2.116.409,3.59,3.59,0,0,1,.776.706A4.463,4.463,0,0,1,33.819,14.455Z" transform="translate(19.909 4.796)" fill="#d42553"/>
      <path id="Path_65" data-name="Path 65" d="M31.872,12.014a23.082,23.082,0,0,1-5.658,7.633,3.486,3.486,0,0,1-1.284.663,12.776,12.776,0,0,1-1.27-1.2,21.308,21.308,0,0,1-3.118-4.628,4.483,4.483,0,0,1,.423-4.868c2.385-2.878,6.152.508,6.152.508A7.116,7.116,0,0,1,30.377,8.5a3.086,3.086,0,0,1,2.117.409A6.11,6.11,0,0,1,31.872,12.014Z" transform="translate(19.504 4.796)" fill="#f7527b"/>
    </g>
  </g>
</svg>
