<svg xmlns="http://www.w3.org/2000/svg" viewBox="0 0 96 96"><defs><style>.cls-1{fill:#8296ff;}.cls-2{fill:#6478dc;}.cls-3{fill:#f7527b;}.cls-4{fill:#e33967;}.cls-5{fill:#ff7f99;}.cls-6{fill:#ffa7bc;}.cls-7{fill:#ff84a3;}.cls-8{fill:#5f5fb9;}.cls-9{fill:#302d3d;}</style></defs><title>Kidney</title><g id="Kidney"><path class="cls-1" d="M68.14,40.61v5.65L55.39,44.55a2.36,2.36,0,0,0-2.66,2.33V73.45H47.07V44.25a2.35,2.35,0,0,0-2.66-2.33L31.66,43.63V38L45,36.18a2.34,2.34,0,0,0,2-2.33V23.31h5.66V36.49a2.36,2.36,0,0,0,2,2.33Z"/><polygon class="cls-2" points="42.63 36.5 31.66 37.98 31.66 43.63 42.63 42.16 42.63 36.5"/><rect class="cls-2" x="47.07" y="54.13" width="5.66" height="19.33"/><path class="cls-2" d="M59,42.59a2.8,2.8,0,0,0,2.43,2.77l6.71.9V40.61l-6-.8A2.8,2.8,0,0,0,59,42.59Z"/><path class="cls-3" d="M35,59.36C39.3,70.9,26.59,81.52,16.1,75a31.8,31.8,0,0,1,0-54.13C26.59,14.43,39.3,25.05,35,36.59A32.34,32.34,0,0,0,35,59.36Z"/><path class="cls-4" d="M35.7,65.81C34.48,74.36,24.57,80.27,16.1,75A31.8,31.8,0,0,1,3.29,36,31.71,31.71,0,0,0,17.43,70.94,12.88,12.88,0,0,0,35.7,65.81Z"/><path class="cls-5" d="M21.08,39.12a6.29,6.29,0,0,0,6-4.2c.52-1.53,1.51-3.38-.08-5.69a4.82,4.82,0,0,0-6.67-1.51,24.81,24.81,0,0,0-4.1,3.16,4.82,4.82,0,0,0,3.43,8.24Z"/><path class="cls-6" d="M64.41,50.8v5.65L50.46,54.74a3,3,0,0,0-3.39,3V80.56H41.42V58.86a2.72,2.72,0,0,0-3.09-2.69L27,57.77V52.12l10.69-1.51a4.39,4.39,0,0,0,3.78-4.35v-29h5.65V44.47a4.74,4.74,0,0,0,4.17,4.71Z"/><path class="cls-7" d="M30.31,51.65,27,52.12v5.65l4.14-.58a2.8,2.8,0,1,0-.78-5.54Z"/><path class="cls-7" d="M58.58,53.25A2.81,2.81,0,0,0,61.05,56l3.36.41V50.8l-2.68-.33A2.81,2.81,0,0,0,58.58,53.25Z"/><path class="cls-3" d="M61.05,59.36C56.7,70.9,69.41,81.52,79.9,75a31.8,31.8,0,0,0,0-54.13c-10.49-6.48-23.2,4.14-18.85,15.68A32.34,32.34,0,0,1,61.05,59.36Z"/><path class="cls-4" d="M95,48A31.49,31.49,0,0,1,79.9,75C70.37,80.93,59,72.69,60.27,62.48,62.45,70.09,71.61,74.91,79.51,70A31.49,31.49,0,0,0,94.61,43,28.16,28.16,0,0,1,95,48Z"/><path class="cls-5" d="M83.7,51.5h.67a4,4,0,0,0,4-3.89,23.33,23.33,0,0,0-11.3-20.3,4.82,4.82,0,0,0-6.66,1.51,4.67,4.67,0,0,0-.5,4.54,39.59,39.59,0,0,1,2.1,8A11.84,11.84,0,0,0,83.7,51.5Z"/><path class="cls-3" d="M41.42,46.26v4.46a1,1,0,0,1-2,0V50A4.41,4.41,0,0,0,41.42,46.26Z"/><path class="cls-3" d="M49.07,48.34v2.08a1,1,0,0,1-2,0v-6A4.72,4.72,0,0,0,49.07,48.34Z"/><path class="cls-8" d="M54.73,41.87v2.69a2.35,2.35,0,0,0-2,2.32v-5a1,1,0,0,1,2,0Z"/><path class="cls-9" d="M80.34,19.91c-11.29-7-25,4.45-20.31,16.89.21.54.4,1.1.57,1.65l-5.79-.77a1.36,1.36,0,0,1-1.17-1.34V23.16a1,1,0,0,0-1-1H48V17.08a1,1,0,0,0-1-1H41.34a1,1,0,0,0-1,1V35.65L36,36.23c4.07-12.3-9.43-23.15-20.5-16.32a32.8,32.8,0,0,0,0,55.83c11.29,7,25-4.44,20.31-16.88-.18-.46-.32-.94-.47-1.42L38.38,57a1.72,1.72,0,0,1,2,1.7V80.42a1,1,0,0,0,1,1H47a1,1,0,0,0,1-1V74.31h4.65a1,1,0,0,0,1-1V56l7.06.87c-.13.44-.67,2.09-.67,2-4.69,12.45,9,23.84,20.31,16.88A32.8,32.8,0,0,0,80.34,19.91ZM53.64,46.73a1.35,1.35,0,0,1,1.53-1.33l6.84.91c.05,1,.05,2,0,3l-8.37-1Zm-2-22.57V36.34a3.36,3.36,0,0,0,2.91,3.32l6.63.89a31.5,31.5,0,0,1,.66,3.72l-6.4-.86a3.36,3.36,0,0,0-1.8.28v-2a1,1,0,0,0-2,0v6.36L51.28,48A3.77,3.77,0,0,1,48,44.1V24.16ZM33.88,50A32.22,32.22,0,0,1,34,44.16l6.32-.84v2.8a3.42,3.42,0,0,1-2.92,3.36Zm6.46-8.67-6,.8a30.39,30.39,0,0,1,.94-3.76l5.07-.68ZM33.93,59.57c4,10.54-7.63,20.5-17.39,14.47a30.81,30.81,0,0,1,0-52.43c9.75-6,21.37,3.91,17.39,14.48a33.49,33.49,0,0,0-2,14.16l-4.09.58a12.39,12.39,0,0,0-1.51-4.92l1.86-2.44A1,1,0,0,0,28,42.06a1,1,0,0,0-1.4.2l-1.45,1.89a14.8,14.8,0,0,0-1.39-1.51,1,1,0,1,0-1.41,1.41l.46.46A10.47,10.47,0,0,1,25.86,52v5.65a11.06,11.06,0,0,1-3.25,7.87l-1,1a1,1,0,0,0,.71,1.71c.54,0,.72-.31,1.66-1.25a13,13,0,0,0,3.8-8.4l5.48-.77C33.5,58.35,33.7,59,33.93,59.57ZM46,79.42H42.34V58.71A3.73,3.73,0,0,0,38.1,55L27.86,56.47V52.84l9.83-1.38a5.4,5.4,0,0,0,2.65-1.16v1.45a1,1,0,0,0,2,0V18.08H46Zm5.65-7.11H48V57.58a2,2,0,0,1,2.26-2l1.39.17ZM50.49,53.6a4,4,0,0,0-2.5.52V48.65A5.75,5.75,0,0,0,51,50l10.8,1.33a33.52,33.52,0,0,1-.61,3.56ZM79.29,74c-9.76,6-21.37-3.92-17.38-14.47a32.41,32.41,0,0,0,2-8.89.25.25,0,0,0,0-.07.57.57,0,0,0,0-.13,33.35,33.35,0,0,0-2-14.39c-4-10.5,7.58-20.53,17.39-14.48A30.8,30.8,0,0,1,79.29,74Z"/><path class="cls-9" d="M76.51,47.32l-3.94-1.73c.27-3.85,1.43-6.12,2.6-8.8A1,1,0,0,0,73.33,36c-1.35,3.1-2.6,5.65-2.79,10.08a1,1,0,0,0,0,.25A26.36,26.36,0,0,0,71,51.9a1,1,0,0,0,2-.3,28.77,28.77,0,0,1-.45-3.84l3.17,1.39a1,1,0,1,0,.8-1.83Z"/></g></svg>