<svg xmlns="http://www.w3.org/2000/svg" viewBox="0 0 96 96"><defs><style>.cls-1{fill:#fbc4ab;}.cls-2{fill:#f7527b;}.cls-3{fill:#f7899e;}.cls-4{fill:#f798ad;}.cls-5{fill:#fbd3c9;}.cls-6{fill:#fbbab0;}.cls-7{fill:#fba697;}.cls-8{fill:#302d3d;}</style></defs><title>Lungs</title><g id="Lungs"><path class="cls-1" d="M51.09,28V4.8H44.91V28a4.59,4.59,0,0,1-3.18,4.36l-3.44,1.09v6.18l7-2.24a8.91,8.91,0,0,1,5.36,0l7,2.24V33.41l-3.44-1.09A4.59,4.59,0,0,1,51.09,28Z"/><path class="cls-2" d="M7.22,91c6.5,1.23,15.56-2.2,22.45-5.58a17.92,17.92,0,0,0,10-16.1V28.53a7,7,0,0,0-10.5-6.13C23.7,25.49,16.93,31,10.78,40.79.08,57.73-2.91,89,7.22,91Z"/><path class="cls-3" d="M31.69,55.57V37a3.3,3.3,0,0,0-5.53-2.44,52.68,52.68,0,0,0-8.62,10.55,49.29,49.29,0,0,0-4.48,9.41,3.3,3.3,0,0,0,3.11,4.41H28.39A3.31,3.31,0,0,0,31.69,55.57Z"/><path class="cls-4" d="M39.7,58.47V69.28a17.9,17.9,0,0,1-10,16.08c-6.89,3.38-15.95,6.82-22.45,5.58C2,90,.25,81,1.3,70.31c.68,5.42,2.6,9.21,5.92,9.84,6.5,1.23,15.56-2.2,22.45-5.58A17.94,17.94,0,0,0,39.7,58.47Z"/><path class="cls-2" d="M88.78,91c-6.5,1.23-15.56-2.2-22.45-5.58a17.92,17.92,0,0,1-10-16.1V28.53a7,7,0,0,1,10.5-6.13C72.3,25.49,79.07,31,85.22,40.79,95.92,57.73,98.91,89,88.78,91Z"/><path class="cls-3" d="M79.83,58.88a3.3,3.3,0,0,0,3.11-4.41,49.29,49.29,0,0,0-4.48-9.41,52.68,52.68,0,0,0-8.62-10.55A3.3,3.3,0,0,0,64.31,37V55.57a3.31,3.31,0,0,0,3.3,3.31Z"/><path class="cls-4" d="M56.3,58.47V69.28a17.9,17.9,0,0,0,10,16.08c6.89,3.38,16,6.82,22.45,5.58,5.26-1,7-9.91,5.92-20.63-.68,5.42-2.6,9.21-5.92,9.84-6.5,1.23-15.56-2.2-22.45-5.58A17.94,17.94,0,0,1,56.3,58.47Z"/><rect class="cls-5" x="44.91" y="4.8" width="6.18" height="6.18"/><rect class="cls-6" x="44.91" y="10.97" width="6.18" height="6.18"/><rect class="cls-7" x="44.91" y="17.15" width="6.18" height="6.18"/><path class="cls-8" d="M86,40.11c-6.61-10.47-13.86-16-18.77-18.73a8,8,0,0,0-12,7v3.07l-.74-.23A3.57,3.57,0,0,1,52,27.82V4.65a1,1,0,0,0-1-1H44.83a1,1,0,0,0-1,1V27.82a3.57,3.57,0,0,1-2.48,3.4l-.74.23V28.38a8,8,0,0,0-12-7c-4.91,2.76-12.16,8.26-18.77,18.73C4.72,48.23,1.23,59.86.23,70c-.1.1-1.18,10.18,1.26,16.36a8.66,8.66,0,0,0,3.86,4.83,11,11,0,0,0,4.68.82c8.19,0,20-5.61,22.07-7.12a18.81,18.81,0,0,0,8.52-15.8c0-18.78,0-4,0-29.4l4.94-1.57a7.68,7.68,0,0,1,4.74,0l4.94,1.57c0,9,0,20.44,0,29.4a18.81,18.81,0,0,0,10.59,17c6,2.93,14.11,6.17,20.8,5.91a7.91,7.91,0,0,0,4.61-1.24C100.1,84.22,95.46,55.1,86,40.11ZM50,16H45.83V11.83H50Zm-4.18,2H50v4.18H45.83Zm0-12.35H50V9.83H45.83ZM31.23,83.11A58.43,58.43,0,0,1,21,87.78c-4.28,1.53-9.52,2.87-14,2-.1-.1-5-.59-5.11-13.12,1.19,2.47,2.88,4,5,4.35,6.86,1.31,16.33-2.36,23.07-5.66a19,19,0,0,0,8.58-8.56v2.36A17.06,17.06,0,0,1,31.23,83.11Zm7.38-24.19a17,17,0,0,1-9.46,14.6c-6.46,3.17-15.5,6.7-21.82,5.5-3.5-.66-4.7-5.77-5.1-8.85,1-9.87,4.42-21.24,9.31-29,6.39-10.11,13.35-15.4,18.06-18a6,6,0,0,1,9,5.26ZM50.9,36.25a9.63,9.63,0,0,0-6,0l-4.33,1.38V33.55L42,33.12a5.55,5.55,0,0,0,3.88-5.3V24.18H50v3.64a5.55,5.55,0,0,0,3.88,5.3l1.34.43v4.08Zm6.33-7.87a6,6,0,0,1,9-5.26C71,25.77,77.91,31.06,84.3,41.17c4.89,7.76,8.3,19.13,9.31,29-.4,3.08-1.6,8.19-5.1,8.85-6.31,1.2-15.35-2.33-21.82-5.5a17,17,0,0,1-9.46-14.6Zm32.54,61a4.62,4.62,0,0,1-1,.42c-6.71,1.34-15.7-2.32-22.11-5.43a17,17,0,0,1-9.46-15.2V66.76a19,19,0,0,0,8.58,8.56c6.74,3.3,16.21,7,23.07,5.66,3.85-.72,5-4.7,5-4.26C93.83,80.69,93.19,87.31,89.77,89.33Z"/><path class="cls-8" d="M25.25,62.27A9.5,9.5,0,0,0,17,67.13l-.42.73a1,1,0,0,0,1.75,1l.41-.73a7.52,7.52,0,0,1,6.55-3.84,1,1,0,1,0,0-2Z"/><path class="cls-8" d="M65,36.4l.74.41a7.52,7.52,0,0,1,3.83,6.55,1,1,0,0,0,2,0,9.52,9.52,0,0,0-4.86-8.3L66,34.65a1,1,0,0,0-1.36.39A1,1,0,0,0,65,36.4Z"/><path class="cls-8" d="M29.29,38.37l.19-.93a1,1,0,0,0-.77-1.18,1,1,0,0,0-1.19.78l-.19.92a5.57,5.57,0,0,0,2.14,5.6.92.92,0,0,0,.59.2,1,1,0,0,0,.6-1.8A3.59,3.59,0,0,1,29.29,38.37Z"/><path class="cls-8" d="M23.9,38.82a1,1,0,0,0-.84,1.82,4.41,4.41,0,0,1,2.24,3.15l.18.92a1,1,0,0,0,2-.39l-.18-.92A6.42,6.42,0,0,0,23.9,38.82Z"/><path class="cls-8" d="M69.14,58.41a4.2,4.2,0,0,1-.86-4l.22-.74a1,1,0,0,0-.67-1.24,1,1,0,0,0-1.25.67l-.22.74a6.2,6.2,0,0,0,1.27,5.87l2.43,2.8-.57,2.07a1,1,0,0,0,1.93.53l.49-1.78,2.88.26a1,1,0,0,0,1-.91,1,1,0,0,0-.91-1.08l-3.22-.3Z"/></g></svg>